<svg width="66" height="47" viewBox="0 0 66 47" fill="none" xmlns="http://www.w3.org/2000/svg">
<g clip-path="url(#clip0_4:2)">
<path d="M2.38999 46.05C4.92304 36.7558 8.15561 27.6665 12.06 18.86C14 14.4867 16.1033 10.1933 18.37 5.98001C19.25 4.33001 20.23 2.12001 22.49 2.45001C22.9141 2.52605 23.3112 2.71082 23.6425 2.98628C23.9738 3.26173 24.2279 3.61844 24.3801 4.02152C24.5322 4.4246 24.5772 4.86027 24.5106 5.28593C24.444 5.71159 24.268 6.11269 24 6.45001L25.37 5.89C20.3175 5.08421 15.4744 3.28634 11.12 0.60001L9.88999 2.69001C25.24 11.58 37.59 24.51 49.71 37.25C49.9369 37.4766 50.2444 37.6038 50.565 37.6038C50.8856 37.6038 51.1931 37.4766 51.42 37.25C54.4055 33.7716 58.1385 31.0129 62.34 29.18C63.65 28.61 62.68 26.69 61.4 26.97C59.03 27.49 52.72 29.24 55.09 32.86C56.1772 34.1738 57.6558 35.1058 59.31 35.52C61.1135 36.0849 63.0232 36.2253 64.89 35.93C66.43 35.72 65.77 33.39 64.24 33.59C61.9917 33.9023 59.7066 33.387 57.81 32.14C57.44 31.89 56.95 31.67 57.18 31.14C57.32 30.82 58.31 30.5 58.6 30.37C59.7167 29.9163 60.8757 29.5746 62.06 29.35L61.06 27.13C56.6765 29.0551 52.7808 31.9393 49.66 35.57H51.37C39.11 22.69 26.59 9.63 11.07 0.640003C10.7929 0.476895 10.4623 0.430571 10.1509 0.511211C9.83964 0.591852 9.57312 0.792852 9.41001 1.07C9.2469 1.34715 9.20055 1.67775 9.28119 1.98906C9.36184 2.30037 9.56285 2.5669 9.84 2.73001C14.3745 5.53405 19.4173 7.41662 24.68 8.27001C24.9382 8.32709 25.2077 8.30406 25.4525 8.204C25.6973 8.10394 25.9057 7.93162 26.05 7.71001C26.4934 7.07161 26.7792 6.33724 26.8841 5.56707C26.989 4.79689 26.9098 4.01283 26.6532 3.27913C26.3966 2.54543 25.9698 1.88297 25.4078 1.34602C24.8458 0.809069 24.1646 0.412909 23.42 0.190006C22.609 -0.0328462 21.7564 -0.0583496 20.9336 0.115619C20.1107 0.289588 19.3414 0.657977 18.69 1.19001C17.18 2.46001 16.36 4.48001 15.47 6.19001C11.3022 14.1371 7.69019 22.3634 4.66001 30.81C2.92668 35.5967 1.38999 40.45 0.0499937 45.37C-0.0348756 45.6803 0.00701229 46.0116 0.166418 46.291C0.325824 46.5705 0.589696 46.7751 0.9 46.86C1.2103 46.9449 1.54162 46.903 1.82105 46.7436C2.10048 46.5842 2.30512 46.3203 2.38999 46.01V46.05Z" fill="#231F20"/>
</g>
<defs>
<clipPath id="clip0_4:2">
<rect width="65.75" height="46.87" fill="white"/>
</clipPath>
</defs>
</svg>
