<svg width="31" height="31" viewBox="0 0 31 31" fill="none" xmlns="http://www.w3.org/2000/svg">
<path d="M13.2794 14.9564H16.8153C18.0138 14.9564 18.9896 13.9806 18.9896 12.7821C18.9896 11.5874 18.0138 10.6079 16.8153 10.6079H13.2794V14.9564Z" fill="black"/>
<path d="M13.2794 16.0472V20.3921H17.6687C18.8672 20.3921 19.8393 19.4162 19.8393 18.2178C19.8393 17.0193 18.8672 16.0472 17.6687 16.0472H13.2794Z" fill="black"/>
<path d="M15.4981 0C6.9532 0 0 6.9532 0 15.5018C0 24.0505 6.9532 31 15.4981 31C24.0468 31 31 24.0505 31 15.5018C31 6.9532 24.0468 0 15.4981 0ZM15.4981 5.06463C15.0121 5.06463 14.5186 5.09802 14.0325 5.16481L13.8841 4.0851C14.4221 4.01089 14.9601 3.97379 15.4981 3.97379C21.8577 3.97379 27.0262 9.14601 27.0262 15.5018L25.9354 15.5835L25.9391 15.4759C25.9391 9.74338 21.2566 5.06463 15.4981 5.06463ZM5.06463 15.461V15.5018C5.06463 21.2566 9.74709 25.9391 15.5018 25.9391C15.9805 25.9391 16.4591 25.9057 16.9303 25.8426L17.075 26.9223C16.5519 26.9928 16.0287 27.0262 15.4981 27.0262C9.14601 27.0262 3.97379 21.854 3.97379 15.5018L5.06463 15.461ZM14.9119 9.51705V8.06259H16.0027V9.51705H16.819C18.6185 9.51705 20.0841 10.9863 20.0841 12.7822C20.0841 13.758 19.6537 14.6299 18.971 15.231C20.1287 15.7356 20.9338 16.8858 20.9338 18.2215C20.9338 20.0211 19.4645 21.4866 17.6687 21.4866H16.0027V22.9411H14.9119V21.4829H13.2793V22.9374H12.1922V21.4829H10.619V20.3921H12.1959V10.6079H10.619V9.51705H12.1959V8.06259H13.2831V9.51705H14.9119Z" fill="black"/>
</svg>
