<svg width="24" height="25" viewBox="0 0 24 25" fill="none" xmlns="http://www.w3.org/2000/svg">
<path d="M20 0.5H4C2.93913 0.5 1.92172 0.921427 1.17157 1.67157C0.421427 2.42172 0 3.43913 0 4.5V20.5C0 21.5609 0.421427 22.5783 1.17157 23.3284C1.92172 24.0786 2.93913 24.5 4 24.5H20C21.0609 24.5 22.0783 24.0786 22.8284 23.3284C23.5786 22.5783 24 21.5609 24 20.5V4.5C24 3.43913 23.5786 2.42172 22.8284 1.67157C22.0783 0.921427 21.0609 0.5 20 0.5ZM22 20.5C22 21.0304 21.7893 21.5391 21.4142 21.9142C21.0391 22.2893 20.5304 22.5 20 22.5H4C3.46957 22.5 2.96086 22.2893 2.58579 21.9142C2.21071 21.5391 2 21.0304 2 20.5V4.5C2 3.96957 2.21071 3.46086 2.58579 3.08579C2.96086 2.71071 3.46957 2.5 4 2.5H20C20.5304 2.5 21.0391 2.71071 21.4142 3.08579C21.7893 3.46086 22 3.96957 22 4.5V20.5Z" fill="black"/>
<path d="M12 6.5C10.8133 6.5 9.65328 6.85189 8.66658 7.51118C7.67989 8.17047 6.91085 9.10754 6.45673 10.2039C6.0026 11.3003 5.88378 12.5067 6.11529 13.6705C6.3468 14.8344 6.91825 15.9035 7.75736 16.7426C8.59648 17.5818 9.66558 18.1532 10.8295 18.3847C11.9933 18.6162 13.1997 18.4974 14.2961 18.0433C15.3925 17.5892 16.3295 16.8201 16.9888 15.8334C17.6481 14.8467 18 13.6867 18 12.5C18 10.9087 17.3679 9.38258 16.2426 8.25736C15.1174 7.13214 13.5913 6.5 12 6.5ZM12 16.5C11.2089 16.5 10.4355 16.2654 9.77772 15.8259C9.11993 15.3864 8.60723 14.7616 8.30448 14.0307C8.00173 13.2998 7.92252 12.4956 8.07686 11.7196C8.2312 10.9437 8.61217 10.231 9.17158 9.67157C9.73099 9.11216 10.4437 8.7312 11.2196 8.57686C11.9956 8.42252 12.7998 8.50173 13.5307 8.80448C14.2616 9.10723 14.8864 9.61992 15.3259 10.2777C15.7654 10.9355 16 11.7089 16 12.5C16 13.5609 15.5786 14.5783 14.8284 15.3284C14.0783 16.0786 13.0609 16.5 12 16.5Z" fill="black"/>
<path d="M18.5 7.5C19.3284 7.5 20 6.82843 20 6C20 5.17157 19.3284 4.5 18.5 4.5C17.6716 4.5 17 5.17157 17 6C17 6.82843 17.6716 7.5 18.5 7.5Z" fill="black"/>
</svg>
