<svg width="24" height="25" viewBox="0 0 24 25" fill="none" xmlns="http://www.w3.org/2000/svg">
<path fill-rule="evenodd" clip-rule="evenodd" d="M21 2.5H3C2.44772 2.5 2 2.94772 2 3.5V21.5C2 22.0523 2.44772 22.5 3 22.5H21C21.5523 22.5 22 22.0523 22 21.5V3.5C22 2.94772 21.5523 2.5 21 2.5ZM3 0.5C1.34315 0.5 0 1.84315 0 3.5V21.5C0 23.1569 1.34315 24.5 3 24.5H21C22.6569 24.5 24 23.1569 24 21.5V3.5C24 1.84315 22.6569 0.5 21 0.5H3Z" fill="black"/>
<path fill-rule="evenodd" clip-rule="evenodd" d="M11.9802 12.1181L2.36136 1.99307L0.911364 3.37057L12.0198 15.0637L22.5615 3.35078L21.0749 2.01285L11.9802 12.1181Z" fill="black"/>
</svg>
