<svg width="64" height="13" viewBox="0 0 64 13" fill="none" xmlns="http://www.w3.org/2000/svg">
<path d="M10.5196 0.5C10.9517 1.20373 11.1465 1.92858 11.1465 2.84422C11.1465 5.76461 8.61831 9.55842 6.56639 12.2224H1.87965L0 1.13941L4.10375 0.755219L5.09753 8.64147C6.02612 7.14975 7.172 4.80556 7.172 3.2073C7.172 2.33247 7.02003 1.7366 6.78248 1.24596L10.5196 0.5Z" fill="black"/>
<path d="M15.8384 5.38098C16.5935 5.38098 18.4947 5.04032 18.4947 3.97481C18.4947 3.46318 18.1278 3.20796 17.6955 3.20796C16.9391 3.20796 15.9465 4.10237 15.8384 5.38098ZM15.7519 7.49122C15.7519 8.79225 16.4855 9.30268 17.4581 9.30268C18.5172 9.30268 19.5313 9.04745 20.8494 8.38693L20.3529 11.7112C19.4243 12.1586 17.9769 12.4572 16.5721 12.4572C13.0086 12.4572 11.7333 10.3262 11.7333 7.66207C11.7333 4.20916 13.8078 0.542782 18.0849 0.542782C20.4397 0.542782 21.7564 1.8437 21.7564 3.65516C21.7566 6.57546 17.9556 7.47009 15.7519 7.49122Z" fill="black"/>
<path d="M33.5995 3.05841C33.5995 3.4846 33.5341 4.10279 33.4687 4.50679L32.2375 12.18H28.2415L29.3647 5.1461C29.386 4.95532 29.4515 4.57124 29.4515 4.35814C29.4515 3.84647 29.1273 3.71883 28.7376 3.71883C28.22 3.71883 27.7011 3.95303 27.3555 4.12403L26.0815 12.18H22.063L23.8989 0.691987H27.3768L27.4209 1.60893C28.2414 1.07618 29.3218 0.5 30.8547 0.5C32.8858 0.499781 33.5995 1.52317 33.5995 3.05841Z" fill="black"/>
<path d="M45.4626 1.80039C46.6071 0.9913 47.6878 0.542782 49.1776 0.542782C51.2294 0.542782 51.9431 1.56617 51.9431 3.10142C51.9431 3.52763 51.8777 4.14581 51.8126 4.54982L50.5826 12.223H46.5855L47.7304 5.04044C47.7514 4.84844 47.7958 4.61424 47.7958 4.46568C47.7958 3.88959 47.4714 3.76183 47.0817 3.76183C46.5855 3.76183 46.0893 3.97493 45.7209 4.16703L44.447 12.2231H40.4512L41.5957 5.04053C41.6167 4.84856 41.6599 4.61436 41.6599 4.4658C41.6599 3.88971 41.3353 3.76195 40.9471 3.76195C40.4284 3.76195 39.9106 3.99614 39.565 4.16715L38.2899 12.2232H34.2728L36.1085 0.735097H39.544L39.652 1.69416C40.4512 1.1194 41.5306 0.543219 42.9779 0.543219C44.231 0.542782 45.0513 1.07564 45.4626 1.80039Z" fill="black"/>
<path d="M59.8946 5.14661C59.8946 4.20877 59.6567 3.56937 58.9445 3.56937C57.3677 3.56937 57.0436 6.31855 57.0436 7.72493C57.0436 8.79186 57.3464 9.45217 58.0586 9.45217C59.549 9.45217 59.8946 6.55287 59.8946 5.14661ZM52.9827 7.55516C52.9827 3.93232 54.9265 0.542416 59.3984 0.542416C62.7682 0.542416 64 2.50375 64 5.21094C64 8.79174 62.0772 12.5 57.4973 12.5C54.1059 12.5 52.9827 10.3045 52.9827 7.55516Z" fill="black"/>
</svg>
